# xmcd
#
# Track frame offsets: 
#        150
#        16582
#        35757
#        54907
#        77987
#        108272
#        126740
#        148750
#        166452
#        185015
#        201287
#
# Disc length: 2854 seconds
#
# Revision: 0
# Processed by: cddbd v1.5.2PL0 Copyright (c) Steve Scherf et al.
# Submitted via: ExactAudioCopy v0.99pb4
#
DISCID=9d0b240b
DTITLE=Jake Thunder - Determination
DYEAR=1996
DGENRE=Blues
TTITLE0=Determination
TTITLE1=Good Time Loving
TTITLE2=I Fight Too Much
TTITLE3=I'm Without You
TTITLE4=Free Ride
TTITLE5=Life's Full of Surprises
TTITLE6=What's Going On
TTITLE7=Just a Fool Who Loved You Too Much
TTITLE8=Sweet Style
TTITLE9=Getting Wild
TTITLE10=Goodbye Berlin
EXTD=
EXTT0=
EXTT1=
EXTT2=
EXTT3=
EXTT4=
EXTT5=
EXTT6=
EXTT7=
EXTT8=
EXTT9=
EXTT10=
PLAYORDER=
